<svg xmlns="http://www.w3.org/2000/svg" width="596.75" height="581.5" viewBox="0 0 596.75 581.5"><path d="M122,188,57,80.75V188H15V13H58.5l64,108.5V13h42V188Zm222.25-22.5q-25.5,25.75-66.25,25.75t-66.25-25.875q-25.5-25.875-25.5-65.125,0-38.75,25.5-64.625T278,9.75q40.75,0,66.25,25.875t25.5,64.625Q369.75,139.5,344.25,165.5ZM312,64.25q-13.25-14.5-34-14.5T244,64.125Q230.75,78.5,230.75,100.25q0,22.25,13.25,36.625t34,14.375q20.75,0,34-14.375t13.25-36.625Q325.25,78.5,312,64.25ZM66.75,209.75A63.8,63.8,0,0,1,90.625,214a45.264,45.264,0,0,1,17,11.25,89.306,89.306,0,0,1,10,12.875,54.934,54.934,0,0,1,5.625,12.125L87.75,266.5a54.3,54.3,0,0,0-4.375-8.125,23.44,23.44,0,0,0-6.75-6.125,19.537,19.537,0,0,0-10.875-3q-6.25,0-10,3.375A10.813,10.813,0,0,0,52,261q0,6.5,7.5,11.625a108.337,108.337,0,0,0,18.25,9.75A233.406,233.406,0,0,1,99.25,293a53.664,53.664,0,0,1,18.25,17q7.5,11,7.5,25.75,0,24.75-16.5,40.125T63.75,391.25a66.763,66.763,0,0,1-25-4.5q-11.25-4.5-18-11.625A85.24,85.24,0,0,1,10.125,361.75,58.431,58.431,0,0,1,4.25,349.5L40,331.75a37.4,37.4,0,0,0,10.75,13.875,24.161,24.161,0,0,0,15.5,5.625q15.5,0,15.5-12.25,0-5.25-5.375-9.875a50.35,50.35,0,0,0-13.375-8q-8-3.375-17.5-8.5A139.471,139.471,0,0,1,28,301.5a47.371,47.371,0,0,1-13.375-16.25,49.855,49.855,0,0,1-5.375-23.5Q9.25,238.25,25,224T66.75,209.75ZM297,365.5q-25.5,25.75-66.25,25.75T164.5,365.375Q139,339.5,139,300.25q0-38.75,25.5-64.625t66.25-25.875q40.75,0,66.25,25.875t25.5,64.625Q322.5,339.5,297,365.5ZM264.75,264.25q-13.25-14.5-34-14.5t-34,14.375Q183.5,278.5,183.5,300.25q0,22.25,13.25,36.625t34,14.375q20.75,0,34-14.375T278,300.25Q278,278.5,264.75,264.25ZM123,451.25H85.25V588H42.5V451.25H4.75V413H123Zm138.5,15.5a59.848,59.848,0,0,1-6.25,27.375,43.334,43.334,0,0,1-18,18.875l40.25,75H230.25L199,523.25H186V588H143.25V413h57Q261.5,413,261.5,466.75Zm-64.75-17H186V487.5h12.75q8.75,0,13.875-5.125t5.125-14.125Q217.75,449.75,196.75,449.75Zm247,115.75q-25.5,25.75-66.25,25.75t-66.25-25.875q-25.5-25.875-25.5-65.125,0-38.75,25.5-64.625T377.5,409.75q40.75,0,66.25,25.875t25.5,64.625Q469.25,539.5,443.75,565.5ZM411.5,464.25q-13.25-14.5-34-14.5t-34,14.375Q330.25,478.5,330.25,500.25q0,22.25,13.25,36.625t34,14.375q20.75,0,34-14.375t13.25-36.625Q424.75,478.5,411.5,464.25Zm131.25-54.5A63.8,63.8,0,0,1,566.625,414a45.265,45.265,0,0,1,17,11.25,89.308,89.308,0,0,1,10,12.875,54.932,54.932,0,0,1,5.625,12.125l-35.5,16.25a54.294,54.294,0,0,0-4.375-8.125,23.441,23.441,0,0,0-6.75-6.125,19.537,19.537,0,0,0-10.875-3q-6.25,0-10,3.375A10.813,10.813,0,0,0,528,461q0,6.5,7.5,11.625a108.336,108.336,0,0,0,18.25,9.75A233.406,233.406,0,0,1,575.25,493a53.664,53.664,0,0,1,18.25,17q7.5,11,7.5,25.75,0,24.75-16.5,40.125T539.75,591.25a66.763,66.763,0,0,1-25-4.5q-11.25-4.5-18-11.625a85.239,85.239,0,0,1-10.625-13.375,58.432,58.432,0,0,1-5.875-12.25L516,531.75a37.4,37.4,0,0,0,10.75,13.875,24.161,24.161,0,0,0,15.5,5.625q15.5,0,15.5-12.25,0-5.25-5.375-9.875a50.35,50.35,0,0,0-13.375-8q-8-3.375-17.5-8.5A139.473,139.473,0,0,1,504,501.5a47.371,47.371,0,0,1-13.375-16.25,49.855,49.855,0,0,1-5.375-23.5q0-23.5,15.75-37.75T542.75,409.75Z" transform="translate(-4.25 -9.75)" fill="#fff"/></svg>